<svg width="48" height="40" viewBox="0 0 48 40" fill="none" xmlns="http://www.w3.org/2000/svg">
<path d="M47.5893 7.11584C47.5472 7.07576 47.5008 7.04031 47.4511 7.01012H47.4104L33.9957 0.268346C33.4639 -0.0041948 32.8505 -0.0719384 32.272 0.077972C31.6935 0.227882 31.1902 0.585013 30.8575 1.08159L21.8006 15.1263L16.8087 7.23783C16.7785 7.18809 16.743 7.14174 16.703 7.09957C16.6383 7.03915 16.5641 6.98971 16.4835 6.95319L4.19071 0.796953C3.81849 0.611072 3.40492 0.52352 2.98933 0.542619C2.57373 0.561719 2.16993 0.686836 1.81632 0.906074C1.4627 1.12531 1.17103 1.43138 0.96903 1.79518C0.76703 2.15899 0.661418 2.56843 0.662236 2.98457V31.8709C0.662855 32.3237 0.789422 32.7674 1.02777 33.1523C1.26612 33.5372 1.60685 33.8482 2.01184 34.0504L13.394 39.7431C13.7656 39.9287 14.1784 40.0162 14.5934 39.9975C15.0083 39.9788 15.4115 39.8544 15.7649 39.6361C16.1183 39.4178 16.4101 39.1129 16.6127 38.7502C16.8153 38.3875 16.9219 37.9791 16.9225 37.5636V25.6577L44.2641 39.7024C44.636 39.8934 45.0507 39.9855 45.4684 39.97C45.8861 39.9545 46.2929 39.8319 46.6496 39.6139C47.0063 39.3959 47.301 39.0898 47.5054 38.7251C47.7098 38.3604 47.8171 37.9492 47.817 37.5311V7.66884C47.814 7.46228 47.7327 7.26456 47.5893 7.11584ZM15.2965 37.5636C15.296 37.7022 15.2602 37.8385 15.1923 37.9593C15.1245 38.0802 15.0269 38.1817 14.9087 38.2542C14.7906 38.3268 14.6559 38.3679 14.5175 38.3737C14.379 38.3795 14.2414 38.3498 14.1176 38.2874L2.73542 32.5947C2.60134 32.5271 2.48859 32.4237 2.40966 32.296C2.33074 32.1682 2.28872 32.0211 2.28826 31.8709V2.98457C2.28798 2.84637 2.32292 2.71037 2.38978 2.58942C2.45664 2.46848 2.55321 2.36657 2.67038 2.29332C2.7989 2.21025 2.94826 2.16514 3.10127 2.1632C3.22579 2.16522 3.34818 2.19582 3.459 2.25266L15.2965 8.17305V37.5636ZM16.9225 23.8442V10.4745L29.4591 30.2688L16.9225 23.8442ZM22.7518 16.6145L32.2559 1.97615C32.3648 1.80764 32.5322 1.68535 32.7258 1.63281C32.9194 1.58027 33.1256 1.60118 33.3047 1.69152L45.8332 7.99414L31.5567 30.5453L22.7518 16.6145ZM46.1909 37.5311C46.1912 37.6708 46.1555 37.8083 46.0872 37.9302C46.0189 38.0522 45.9204 38.1544 45.8011 38.2272C45.6818 38.2999 45.5458 38.3407 45.4061 38.3455C45.2665 38.3504 45.128 38.3192 45.0039 38.2549L32.6218 31.8953L46.1909 10.4745V37.5311Z" fill="#EFEFEF"/>
</svg>
